<svg id="Layer_1" data-name="Layer 1" xmlns="http://www.w3.org/2000/svg" viewBox="0 0 50 50"><defs><style>.cls-1{fill:#d8d940;}</style></defs><title>photo</title><path class="cls-1" d="M42.19,9.13a3.94,3.94,0,0,1,4,4V36.9a3.94,3.94,0,0,1-4,4H7.81A3.82,3.82,0,0,1,5,39.71,3.81,3.81,0,0,1,3.84,36.9V13.1A3.81,3.81,0,0,1,5,10.29,3.82,3.82,0,0,1,7.81,9.13ZM41.7,36.9a.56.56,0,0,0,.49-.49V13.59a.56.56,0,0,0-.49-.49H8.3a.56.56,0,0,0-.49.49V36.41a.56.56,0,0,0,.49.49ZM14.42,16.4a3.26,3.26,0,0,1,3.31,3.31A3.26,3.26,0,0,1,14.42,23a3.31,3.31,0,1,1,0-6.62ZM11.77,32.94V29l3.31-3.31a.93.93,0,0,1,.66-.25.9.9,0,0,1,.66.25L19.71,29l9.92-9.92a.87.87,0,0,1,.66-.25.86.86,0,0,1,.66.25l7.28,7.27v6.62Z"/></svg>