<svg id="Layer_1" data-name="Layer 1" xmlns="http://www.w3.org/2000/svg" viewBox="0 0 50 50"><defs><style>.cls-1{fill:#d8d940;}</style></defs><title>registration</title><path class="cls-1" d="M36.23,29.38a.6.6,0,0,1,.69-.15.59.59,0,0,1,.38.61V41a3.67,3.67,0,0,1-3.69,3.7H6.54a3.56,3.56,0,0,1-2.61-1.08A3.56,3.56,0,0,1,2.85,41V13.93a3.67,3.67,0,0,1,3.69-3.69H27.61a.53.53,0,0,1,.54.38.59.59,0,0,1-.15.69l-2.46,2.46a.5.5,0,0,1-.39.16H6.54V41H33.61V32.23a.51.51,0,0,1,.16-.39ZM25.62,36.53l-6.93.77a3.2,3.2,0,0,1-3.53-3.53l.77-6.92L36.15,6.62a4.54,4.54,0,0,1,6.38,0l3.31,3.31a4.34,4.34,0,0,1,1.31,3.19,4.34,4.34,0,0,1-1.31,3.19Zm8.15-22.3L19.46,28.54l-.53,5,5-.54L38.23,18.69Zm6.15-5a.85.85,0,0,0-1.16,0l-2.38,2.38,4.46,4.46,2.38-2.38a.82.82,0,0,0,0-1.16Z"/></svg>