<?xml version="1.0" encoding="utf-8"?>
<!-- Generator: Adobe Illustrator 23.0.4, SVG Export Plug-In . SVG Version: 6.00 Build 0)  -->
<svg xmlns="http://www.w3.org/2000/svg" xmlns:xlink="http://www.w3.org/1999/xlink" version="1.1" id="Layer_1" x="0px" y="0px" viewBox="0 0 900 250" style="enable-background:new 0 0 900 250;" xml:space="preserve">
<style type="text/css">
	.st0{fill:#003768;}
	.st1{fill:#FDB813;}
</style>
<g>
	<g>
		<g>
			<path class="st0" d="M88,101.6v14.9c-5.2-0.5-17-2.3-25-2.3c-7.2,0-9.3,1.1-9.3,2.9c0,1.2,1.2,2.5,6.3,2.5h7.7     c16.4,0,22,6.3,22,18.1c0,17.9-18,20.1-33.9,20.1c-10.7,0-19.3-0.3-28.6-2.3v-16.3c5.4,1.2,13.8,1.7,20.9,1.7     c8.7,0,12.8-0.1,12.8-2.3c0-2.5-2.4-2.6-6.5-2.6h-7.7c-10.7,0-21.8-3-21.8-15.9c0-18,17.3-20.9,34.3-20.9     C67.4,99,79.8,100.2,88,101.6"/>
			<path class="st0" d="M160.3,138.4c0,11-5.1,19.4-32,19.4c-26.9,0-32-8.3-32-19.4v-29.3h26.4v28.6c0,3,1.6,5.5,5.7,5.5     c4,0,5.7-2.5,5.7-5.5v-28.6h26.4V138.4"/>
			<path class="st0" d="M169,109.1h24.3v9.2h0.2c4.7-6.2,10.8-9.9,21-9.9c9.6,0,21.1,2.3,21.1,17.6v30.2h-26.4v-21.9     c0-5.7-2.3-7.5-6.8-7.5c-4.4,0-7.1,1.9-7.1,6v23.4H169V109.1"/>
			<path class="st0" d="M244.8,109.1h25v8.5h0.2c3.8-7.8,10.3-9.2,19.3-9.2c13.5,0,18.1,6,19.3,10.1h0.2     c2.9-8.7,11.2-10.1,18.2-10.1c11.2,0,22.4,4.4,22.4,15.6v32.1h-26.4v-24.1c0-2.6-1.4-5.3-6.4-5.3c-5.1,0-6.4,2.7-6.4,5.3v24.1     h-26.4v-24.1c0-2.6-1.3-5.3-6.4-5.3c-5,0-6.4,2.7-6.4,5.3v24.1h-26.4V109.1"/>
			<path class="st0" d="M398.1,150.7H398c-3,5.8-10.7,7.2-17,7.2c-17.2,0-24.7-8.5-24.7-24.8c0-15.6,6.8-24.6,23.6-24.6     c7.3,0,13.8,1.6,18,7.8h0.2v-7.1h25.7v47.1h-25.7V150.7L398.1,150.7z M381.9,135c0,6.5,3,9.2,8.5,9.2c5.5,0,8.5-2.7,8.5-9.2     c0-6.8-3-9.6-8.5-9.6C384.9,125.4,381.9,128.2,381.9,135"/>
			<path class="st0" d="M398.1,150.7H398c-3,5.8-10.7,7.2-17,7.2c-17.2,0-24.7-8.5-24.7-24.8c0-15.6,6.8-24.6,23.6-24.6     c7.3,0,13.8,1.6,18,7.8h0.2v-7.1h25.7v47.1h-25.7V150.7L398.1,150.7z M381.9,135c0,6.5,3,9.2,8.5,9.2c5.5,0,8.5-2.7,8.5-9.2     c0-6.8-3-9.6-8.5-9.6C384.9,125.4,381.9,128.2,381.9,135"/>
			<path class="st0" d="M432.2,109.1h24v13.4h0.2c1.9-8.7,4-14.1,13.8-14.1c3.3,0,5.4,0.2,7.2,0.5v25.9h-7.6     c-8.2,0-11.2,2.1-11.2,8.3v13.1h-26.4V109.1"/>
			<polyline class="st0" points="482.9,98.1 509.2,98.1 509.2,128.6 509.5,128.6 519.4,109.1 550.9,109.1 532.7,133.5 547.6,156.2      519.4,156.2 509.5,139.8 509.2,139.8 509.2,156.2 482.9,156.2 482.9,98.1    "/>
			<polyline class="st1" points="94.7,83.7 127.6,100.1 131.2,88 94.7,83.7    "/>
			<polyline class="st1" points="115.2,49.6 136.4,79.6 145.3,70.6 115.2,49.6    "/>
			<polyline class="st1" points="151.4,28.8 155,65.3 167.1,62 151.4,28.8    "/>
			<polyline class="st1" points="191.1,27.8 176.9,61.7 189.2,64.5 191.1,27.8    "/>
			<polyline class="st1" points="226.5,46 198,69.1 207.4,77.4 226.5,46    "/>
			<polyline class="st1" points="249.6,80.8 213.4,86.7 217.5,98.6 249.6,80.8    "/>
			<path class="st0" d="M554.8,155.4c-2.3,0-4.2-2-4.2-4.4c0-2.3,1.9-4.3,4.2-4.3c2.3,0,4.2,2,4.2,4.3     C559,153.4,557.1,155.4,554.8,155.4L554.8,155.4z M554.8,156.1c2.7,0,5-2.3,5-5.1c0-2.8-2.2-5.1-5-5.1c-2.8,0-5,2.3-5,5.1     C549.9,153.8,552.1,156.1,554.8,156.1L554.8,156.1z M553.1,152.9c0,0.4-0.1,0.4-0.4,0.4h-0.2v0.3h2.2v-0.3l-0.2,0     c-0.3,0-0.4-0.1-0.4-0.4v-1.7c1.1,0,0.9,0.1,1.4,1.3c0.3,0.6,0.5,1.2,0.9,1.2h1v-0.3c-0.5,0-0.7-0.6-0.9-1.1     c-0.2-0.5-0.5-1.1-1.1-1.3c0.8-0.1,1.4-0.6,1.4-1.5c0-0.9-0.6-1.3-1.8-1.3h-2.5v0.3h0.2c0.4,0,0.4,0.1,0.4,0.4V152.9L553.1,152.9     z M554.2,150.8v-1.8c0-0.2,0-0.5,0.2-0.5l0.3,0c0.7,0,1.2,0.4,1.2,1.1c0,1-0.6,1.2-1.4,1.2L554.2,150.8"/>
		</g>
		<g>
			<path class="st0" d="M246.3,187c-1-0.5-1.9-1.3-2.4-2.3c-0.6-1-0.9-2.2-0.9-3.6c0-1.4,0.3-2.5,0.9-3.6c0.6-1,1.4-1.8,2.4-2.4     c1-0.6,2.2-0.8,3.6-0.8c1.8,0,3.3,0.4,4.5,1.3v2.2c-1.1-0.9-2.5-1.4-4.3-1.4c-0.9,0-1.8,0.2-2.5,0.6c-0.7,0.4-1.3,0.9-1.7,1.6     c-0.4,0.7-0.6,1.5-0.6,2.4s0.2,1.7,0.6,2.4c0.4,0.7,1,1.2,1.7,1.6s1.5,0.6,2.5,0.6c0.9,0,1.7-0.1,2.4-0.3c0.7-0.2,1.4-0.6,2-1.1     v2.2c-1.1,0.9-2.7,1.3-4.6,1.3C248.6,187.8,247.4,187.5,246.3,187z"/>
			<path class="st0" d="M272.3,174.6h5.4c1.4,0,2.5,0.4,3.3,1.1c0.8,0.7,1.2,1.7,1.2,3c0,1-0.2,1.8-0.7,2.4c-0.5,0.7-1.1,1.1-2,1.4     l2.6,5h-2.4l-2.5-4.7h-2.6v4.7h-2.3V174.6z M277.3,180.8c0.8,0,1.4-0.2,1.8-0.5c0.5-0.4,0.7-0.9,0.7-1.6c0-1.4-0.8-2.2-2.5-2.2     h-2.6v4.3H277.3z"/>
			<path class="st0" d="M299.9,174.6h8.7v1.9h-6.4v3.5h4.7v1.9h-4.7v3.5h6.4v1.9h-8.7V174.6z"/>
			<path class="st0" d="M326.2,174.6h4.3c1.4,0,2.6,0.3,3.7,0.8s1.8,1.3,2.4,2.2c0.6,1,0.8,2.1,0.8,3.4c0,2.1-0.6,3.8-1.9,4.9     c-1.2,1.1-3,1.7-5.2,1.7h-4.1V174.6z M330.4,185.6c1.5,0,2.7-0.4,3.5-1.2c0.8-0.8,1.2-1.9,1.2-3.4c0-0.9-0.2-1.6-0.5-2.3     c-0.4-0.7-0.9-1.2-1.5-1.6c-0.7-0.4-1.5-0.6-2.4-0.6h-2.1v9H330.4z"/>
			<path class="st0" d="M355.1,174.6h2.3v12.9h-2.3V174.6z"/>
			<path class="st0" d="M378.8,176.5h-3.9v-1.9H385v1.9h-3.9v11h-2.3V176.5z"/>
			<path class="st0" d="M426.2,186.3c-0.9-1-1.4-2.2-1.4-3.9v-7.9h2.3v7.9c0,1,0.3,1.8,0.9,2.3c0.6,0.5,1.3,0.8,2.3,0.8     c1,0,1.7-0.3,2.3-0.8c0.6-0.5,0.9-1.3,0.9-2.3v-7.9h2.3v7.9c0,1.6-0.5,2.9-1.4,3.9c-0.9,1-2.3,1.4-4.1,1.4     C428.5,187.8,427.2,187.3,426.2,186.3z"/>
			<path class="st0" d="M453.9,174.6h2.2l6,9v-9h2.3v12.9h-2.2l-6-9v9h-2.3V174.6z"/>
			<path class="st0" d="M482.6,174.6h2.3v12.9h-2.3V174.6z"/>
			<path class="st0" d="M506,186.9c-1-0.6-1.9-1.4-2.5-2.4c-0.6-1-0.9-2.2-0.9-3.5s0.3-2.5,0.9-3.5c0.6-1,1.4-1.8,2.5-2.4     c1-0.6,2.2-0.9,3.5-0.9c1.3,0,2.4,0.3,3.5,0.9c1,0.6,1.9,1.4,2.5,2.4s0.9,2.2,0.9,3.5s-0.3,2.5-0.9,3.5c-0.6,1-1.4,1.8-2.5,2.4     c-1,0.6-2.2,0.8-3.5,0.8C508.2,187.8,507.1,187.5,506,186.9z M511.8,185.1c0.7-0.4,1.2-0.9,1.6-1.6c0.4-0.7,0.6-1.5,0.6-2.4     c0-0.9-0.2-1.7-0.6-2.4c-0.4-0.7-0.9-1.2-1.6-1.6c-0.7-0.4-1.4-0.6-2.3-0.6c-0.8,0-1.6,0.2-2.3,0.6c-0.7,0.4-1.2,0.9-1.6,1.6     c-0.4,0.7-0.6,1.5-0.6,2.4c0,0.9,0.2,1.7,0.6,2.4c0.4,0.7,0.9,1.2,1.6,1.6s1.4,0.6,2.3,0.6S511.1,185.5,511.8,185.1z"/>
			<path class="st0" d="M534.1,174.6h2.2l6,9v-9h2.3v12.9h-2.2l-6-9v9h-2.3V174.6z"/>
		</g>
	</g>
	<rect x="632.9" y="60" class="st1" width="3.7" height="162.2"/>
	<g>
		<path class="st0" d="M719.6,134.8c-3.2-1.7-5.8-4-7.5-7.1c-1.8-3.1-2.6-6.7-2.6-10.9c0-4.2,0.9-7.8,2.6-10.9    c1.8-3.1,4.3-5.5,7.5-7.2c3.2-1.7,7-2.5,11.3-2.5c2.9,0,5.4,0.3,7.6,0.8c2.2,0.5,4.2,1.4,6.1,2.6v9.5c-1.7-1.3-3.5-2.3-5.6-2.8    c-2.1-0.6-4.5-0.9-7.2-0.9c-2.3,0-4.4,0.5-6.2,1.4c-1.8,0.9-3.3,2.2-4.3,4c-1.1,1.7-1.6,3.7-1.6,6c0,3.6,1,6.4,3.1,8.4    c2.1,2.1,4.9,3.1,8.5,3.1c2,0,3.7-0.3,5-1V121h-6v-7h15.5v19.6c-4,2.4-9,3.7-14.9,3.7C726.6,137.3,722.9,136.5,719.6,134.8z"/>
		<path class="st0" d="M759,134.7c-3.2-1.7-5.7-4.1-7.6-7.2c-1.9-3.1-2.8-6.7-2.8-10.7c0-4,0.9-7.6,2.8-10.7    c1.9-3.1,4.4-5.5,7.6-7.3c3.2-1.7,6.8-2.6,10.8-2.6c3.9,0,7.5,0.9,10.7,2.6c3.2,1.7,5.7,4.1,7.6,7.3c1.8,3.1,2.8,6.7,2.8,10.7    c0,4-0.9,7.6-2.8,10.7c-1.8,3.1-4.4,5.5-7.6,7.2c-3.2,1.7-6.8,2.6-10.7,2.6C765.8,137.3,762.2,136.4,759,134.7z M775.2,126.6    c1.7-0.9,3-2.2,3.9-3.9c1-1.7,1.5-3.7,1.5-5.9c0-2.3-0.5-4.2-1.4-5.9c-1-1.7-2.3-3-3.9-3.9c-1.7-0.9-3.5-1.4-5.5-1.4    c-2.1,0-3.9,0.5-5.6,1.4c-1.7,0.9-3,2.2-3.9,3.9c-1,1.7-1.4,3.6-1.4,5.9c0,2.3,0.5,4.2,1.4,5.9c1,1.7,2.3,3,3.9,3.9    c1.7,0.9,3.5,1.4,5.5,1.4C771.7,127.9,773.6,127.5,775.2,126.6z"/>
		<path class="st0" d="M803.7,134.7c-3.2-1.7-5.7-4.1-7.6-7.2c-1.9-3.1-2.8-6.7-2.8-10.7c0-4,0.9-7.6,2.8-10.7    c1.9-3.1,4.4-5.5,7.6-7.3c3.2-1.7,6.8-2.6,10.8-2.6c3.9,0,7.5,0.9,10.7,2.6c3.2,1.7,5.7,4.1,7.6,7.3c1.8,3.1,2.8,6.7,2.8,10.7    c0,4-0.9,7.6-2.8,10.7c-1.8,3.1-4.4,5.5-7.6,7.2c-3.2,1.7-6.8,2.6-10.7,2.6C810.6,137.3,807,136.4,803.7,134.7z M820,126.6    c1.7-0.9,3-2.2,3.9-3.9c1-1.7,1.5-3.7,1.5-5.9c0-2.3-0.5-4.2-1.4-5.9c-1-1.7-2.3-3-3.9-3.9c-1.7-0.9-3.5-1.4-5.5-1.4    c-2.1,0-3.9,0.5-5.6,1.4c-1.7,0.9-3,2.2-3.9,3.9c-1,1.7-1.4,3.6-1.4,5.9c0,2.3,0.5,4.2,1.4,5.9c1,1.7,2.3,3,3.9,3.9    c1.7,0.9,3.5,1.4,5.5,1.4C816.5,127.9,818.3,127.5,820,126.6z"/>
		<path class="st0" d="M839.5,97.1h14.1c4.3,0,8.1,0.8,11.3,2.4c3.2,1.6,5.7,3.8,7.5,6.8c1.7,2.9,2.6,6.4,2.6,10.3    c0,6.5-1.9,11.5-5.7,14.8c-3.8,3.4-9.1,5-15.9,5h-13.9V97.1z M854.2,128.1c3.4,0,6-1,7.9-3.1c1.8-2.1,2.7-4.9,2.7-8.4    c0-3.2-0.9-5.9-2.7-8c-1.8-2.1-4.3-3.1-7.5-3.1h-5.1v22.6H854.2z"/>
		<path class="st0" d="M711.2,148.9h10.6l10,26.2l10-26.2h10.6l-15.7,39.4H727L711.2,148.9z"/>
		<path class="st0" d="M757.5,148.9h10v39.4h-10V148.9z"/>
		<path class="st0" d="M773.7,148.9h19.9c3.8,0,6.8,0.9,9,2.8c2.2,1.9,3.3,4.6,3.3,8.1c0,1.7-0.4,3.2-1.1,4.6    c-0.8,1.4-1.8,2.6-3.2,3.4c1.9,0.8,3.3,1.8,4.2,3.2c0.9,1.4,1.4,3.2,1.4,5.5c0,2.4-0.6,4.5-1.7,6.3c-1.1,1.8-2.6,3.1-4.5,4.1    c-1.9,0.9-4,1.4-6.3,1.4h-20.9V148.9z M791.4,164.5c2.9,0,4.4-1.4,4.4-4.1c0-1.5-0.4-2.6-1.1-3.2c-0.8-0.6-1.9-0.9-3.4-0.9h-7.6    v8.2H791.4z M792.1,180.8c1.7,0,2.9-0.3,3.8-1c0.8-0.6,1.2-1.8,1.2-3.4c0-1.6-0.4-2.8-1.3-3.5c-0.9-0.7-2.2-1.1-3.9-1.1h-8.2v9    H792.1z"/>
		<path class="st0" d="M812.2,148.9h27.9v8.4h-18v7.4h13.1v7.8h-13.1v7.4h18v8.4h-27.9V148.9z"/>
		<path class="st0" d="M850.1,188.4c-2.4-0.5-4.4-1.1-6-1.9v-9c2,1.1,4.1,1.8,6.3,2.4c2.2,0.5,4.3,0.8,6.3,0.8    c1.8,0,3.2-0.3,4.2-0.8c0.9-0.6,1.4-1.4,1.4-2.4c0-0.8-0.3-1.5-0.8-2.1c-0.5-0.6-1.2-1.1-2.2-1.6c-1-0.5-2.5-1.2-4.6-2    c-3.6-1.5-6.3-3.2-7.9-5.1c-1.7-1.9-2.5-4.2-2.5-6.9c0-2.3,0.6-4.3,1.9-6c1.3-1.8,3-3.1,5.3-4.1c2.3-1,4.8-1.5,7.8-1.5    c2.4,0,4.5,0.2,6.4,0.6c1.9,0.4,3.7,1,5.4,1.8v8.7c-3.3-1.7-6.6-2.6-10-2.6c-1.8,0-3.2,0.3-4.3,0.9c-1.1,0.6-1.6,1.4-1.6,2.5    s0.5,2,1.6,2.6c1.1,0.7,3.1,1.6,6,2.8c2.7,1.1,4.7,2.2,6.2,3.2c1.5,1.1,2.6,2.3,3.2,3.7c0.7,1.4,1,3.2,1,5.3c0,3.6-1.3,6.5-4,8.5    c-2.6,2-6.6,3.1-11.9,3.1C855,189.1,852.6,188.9,850.1,188.4z"/>
	</g>
</g>
</svg>
